<?xml version="1.0" encoding="UTF-8" standalone="no"?>
<!DOCTYPE svg PUBLIC "-//W3C//DTD SVG 1.1//EN"
 "http://www.w3.org/Graphics/SVG/1.1/DTD/svg11.dtd">
<!-- Generated by graphviz version 2.43.0 (0)
 -->
<!-- Title: snakemake_dag Pages: 1 -->
<svg width="383pt" height="492pt"
 viewBox="0.00 0.00 383.00 492.00" xmlns="http://www.w3.org/2000/svg" xmlns:xlink="http://www.w3.org/1999/xlink">
<g id="graph0" class="graph" transform="scale(1 1) rotate(0) translate(4 488)">
<title>snakemake_dag</title>
<polygon fill="white" stroke="transparent" points="-4,4 -4,-488 379,-488 379,4 -4,4"/>
<!-- 0 -->
<g id="node1" class="node">
<title>0</title>
<path fill="none" stroke="#d8bc56" stroke-width="2" d="M199.5,-36C199.5,-36 169.5,-36 169.5,-36 163.5,-36 157.5,-30 157.5,-24 157.5,-24 157.5,-12 157.5,-12 157.5,-6 163.5,0 169.5,0 169.5,0 199.5,0 199.5,0 205.5,0 211.5,-6 211.5,-12 211.5,-12 211.5,-24 211.5,-24 211.5,-30 205.5,-36 199.5,-36"/>
<text text-anchor="middle" x="184.5" y="-15.5" font-family="sans" font-size="10.00">all</text>
</g>
<!-- 1 -->
<g id="node2" class="node">
<title>1</title>
<path fill="none" stroke="#59d856" stroke-width="2" d="M271.5,-108C271.5,-108 241.5,-108 241.5,-108 235.5,-108 229.5,-102 229.5,-96 229.5,-96 229.5,-84 229.5,-84 229.5,-78 235.5,-72 241.5,-72 241.5,-72 271.5,-72 271.5,-72 277.5,-72 283.5,-78 283.5,-84 283.5,-84 283.5,-96 283.5,-96 283.5,-102 277.5,-108 271.5,-108"/>
<text text-anchor="middle" x="256.5" y="-93" font-family="sans" font-size="10.00">run3</text>
<text text-anchor="middle" x="256.5" y="-82" font-family="sans" font-size="10.00">rep: 1</text>
</g>
<!-- 1&#45;&gt;0 -->
<g id="edge1" class="edge">
<title>1&#45;&gt;0</title>
<path fill="none" stroke="grey" stroke-width="2" d="M238.7,-71.7C229.9,-63.14 219.12,-52.66 209.5,-43.3"/>
<polygon fill="grey" stroke="grey" stroke-width="2" points="211.7,-40.57 202.09,-36.1 206.82,-45.58 211.7,-40.57"/>
</g>
<!-- 2 -->
<g id="node3" class="node">
<title>2</title>
<path fill="none" stroke="#bed856" stroke-width="2" d="M363,-340C363,-340 312,-340 312,-340 306,-340 300,-334 300,-328 300,-328 300,-316 300,-316 300,-310 306,-304 312,-304 312,-304 363,-304 363,-304 369,-304 375,-310 375,-316 375,-316 375,-328 375,-328 375,-334 369,-340 363,-340"/>
<text text-anchor="middle" x="337.5" y="-319.5" font-family="sans" font-size="10.00">prepare_run</text>
</g>
<!-- 2&#45;&gt;1 -->
<g id="edge4" class="edge">
<title>2&#45;&gt;1</title>
<path fill="none" stroke="grey" stroke-width="2" d="M334.89,-303.65C331.5,-282.62 324.88,-246.24 315.5,-216 305.23,-182.89 300.51,-175.25 285.5,-144 281.28,-135.21 276.3,-125.81 271.66,-117.4"/>
<polygon fill="grey" stroke="grey" stroke-width="2" points="274.58,-115.44 266.64,-108.42 268.47,-118.86 274.58,-115.44"/>
</g>
<!-- 4 -->
<g id="node5" class="node">
<title>4</title>
<path fill="none" stroke="#88d856" stroke-width="2" d="M264.5,-180C264.5,-180 234.5,-180 234.5,-180 228.5,-180 222.5,-174 222.5,-168 222.5,-168 222.5,-156 222.5,-156 222.5,-150 228.5,-144 234.5,-144 234.5,-144 264.5,-144 264.5,-144 270.5,-144 276.5,-150 276.5,-156 276.5,-156 276.5,-168 276.5,-168 276.5,-174 270.5,-180 264.5,-180"/>
<text text-anchor="middle" x="249.5" y="-159.5" font-family="sans" font-size="10.00">run2</text>
</g>
<!-- 2&#45;&gt;4 -->
<g id="edge7" class="edge">
<title>2&#45;&gt;4</title>
<path fill="none" stroke="grey" stroke-width="2" d="M330.43,-303.79C321.46,-282.59 305.05,-245.73 287.5,-216 281.98,-206.64 275.25,-196.85 269,-188.26"/>
<polygon fill="grey" stroke="grey" stroke-width="2" points="271.74,-186.08 262.98,-180.14 266.12,-190.26 271.74,-186.08"/>
</g>
<!-- 5 -->
<g id="node6" class="node">
<title>5</title>
<path fill="none" stroke="#56d8c1" stroke-width="2" d="M266.5,-268C266.5,-268 228.5,-268 228.5,-268 222.5,-268 216.5,-262 216.5,-256 216.5,-256 216.5,-228 216.5,-228 216.5,-222 222.5,-216 228.5,-216 228.5,-216 266.5,-216 266.5,-216 272.5,-216 278.5,-222 278.5,-228 278.5,-228 278.5,-256 278.5,-256 278.5,-262 272.5,-268 266.5,-268"/>
<text text-anchor="middle" x="247.5" y="-256" font-family="sans" font-size="10.00">run</text>
<text text-anchor="middle" x="247.5" y="-245" font-family="sans" font-size="10.00">a0: 0.2</text>
<text text-anchor="middle" x="247.5" y="-234" font-family="sans" font-size="10.00">b0: 0.015</text>
<text text-anchor="middle" x="247.5" y="-223" font-family="sans" font-size="10.00">delta: 0.2</text>
</g>
<!-- 2&#45;&gt;5 -->
<g id="edge9" class="edge">
<title>2&#45;&gt;5</title>
<path fill="none" stroke="grey" stroke-width="2" d="M317.53,-303.69C307.76,-295.23 295.7,-284.77 284.35,-274.94"/>
<polygon fill="grey" stroke="grey" stroke-width="2" points="286.49,-272.16 276.64,-268.26 281.91,-277.45 286.49,-272.16"/>
</g>
<!-- 3 -->
<g id="node4" class="node">
<title>3</title>
<path fill="none" stroke="#d85656" stroke-width="2" d="M346,-484C346,-484 291,-484 291,-484 285,-484 279,-478 279,-472 279,-472 279,-460 279,-460 279,-454 285,-448 291,-448 291,-448 346,-448 346,-448 352,-448 358,-454 358,-460 358,-460 358,-472 358,-472 358,-478 352,-484 346,-484"/>
<text text-anchor="middle" x="318.5" y="-469" font-family="sans" font-size="10.00">format</text>
<text text-anchor="middle" x="318.5" y="-458" font-family="sans" font-size="10.00">site: Paracou</text>
</g>
<!-- 3&#45;&gt;2 -->
<g id="edge6" class="edge">
<title>3&#45;&gt;2</title>
<path fill="none" stroke="grey" stroke-width="2" d="M324.07,-447.52C327.09,-437.28 330.59,-424.03 332.5,-412 335.75,-391.49 336.97,-368.04 337.39,-350.36"/>
<polygon fill="grey" stroke="grey" stroke-width="2" points="340.89,-350.23 337.56,-340.17 333.89,-350.11 340.89,-350.23"/>
</g>
<!-- 6 -->
<g id="node7" class="node">
<title>6</title>
<path fill="none" stroke="#56d88a" stroke-width="2" d="M262.5,-340C262.5,-340 232.5,-340 232.5,-340 226.5,-340 220.5,-334 220.5,-328 220.5,-328 220.5,-316 220.5,-316 220.5,-310 226.5,-304 232.5,-304 232.5,-304 262.5,-304 262.5,-304 268.5,-304 274.5,-310 274.5,-316 274.5,-316 274.5,-328 274.5,-328 274.5,-334 268.5,-340 262.5,-340"/>
<text text-anchor="middle" x="247.5" y="-319.5" font-family="sans" font-size="10.00">spinup</text>
</g>
<!-- 3&#45;&gt;6 -->
<g id="edge12" class="edge">
<title>3&#45;&gt;6</title>
<path fill="none" stroke="grey" stroke-width="2" d="M317.68,-447.96C316.17,-429.3 311.84,-398.96 299.5,-376 293.79,-365.37 285.3,-355.43 276.84,-347.1"/>
<polygon fill="grey" stroke="grey" stroke-width="2" points="279.17,-344.48 269.47,-340.21 274.38,-349.6 279.17,-344.48"/>
</g>
<!-- 7 -->
<g id="node8" class="node">
<title>7</title>
<path fill="none" stroke="#d88d56" stroke-width="2" d="M278.5,-412C278.5,-412 210.5,-412 210.5,-412 204.5,-412 198.5,-406 198.5,-400 198.5,-400 198.5,-388 198.5,-388 198.5,-382 204.5,-376 210.5,-376 210.5,-376 278.5,-376 278.5,-376 284.5,-376 290.5,-382 290.5,-388 290.5,-388 290.5,-400 290.5,-400 290.5,-406 284.5,-412 278.5,-412"/>
<text text-anchor="middle" x="244.5" y="-391.5" font-family="sans" font-size="10.00">prepare_spinup</text>
</g>
<!-- 3&#45;&gt;7 -->
<g id="edge13" class="edge">
<title>3&#45;&gt;7</title>
<path fill="none" stroke="grey" stroke-width="2" d="M300.21,-447.7C291.07,-439.05 279.86,-428.45 269.9,-419.03"/>
<polygon fill="grey" stroke="grey" stroke-width="2" points="272.25,-416.43 262.58,-412.1 267.44,-421.52 272.25,-416.43"/>
</g>
<!-- 4&#45;&gt;1 -->
<g id="edge5" class="edge">
<title>4&#45;&gt;1</title>
<path fill="none" stroke="grey" stroke-width="2" d="M251.23,-143.7C252,-135.98 252.93,-126.71 253.79,-118.11"/>
<polygon fill="grey" stroke="grey" stroke-width="2" points="257.28,-118.4 254.79,-108.1 250.31,-117.71 257.28,-118.4"/>
</g>
<!-- 15 -->
<g id="node16" class="node">
<title>15</title>
<path fill="none" stroke="#56c1d8" stroke-width="2" d="M199.5,-108C199.5,-108 169.5,-108 169.5,-108 163.5,-108 157.5,-102 157.5,-96 157.5,-96 157.5,-84 157.5,-84 157.5,-78 163.5,-72 169.5,-72 169.5,-72 199.5,-72 199.5,-72 205.5,-72 211.5,-78 211.5,-84 211.5,-84 211.5,-96 211.5,-96 211.5,-102 205.5,-108 199.5,-108"/>
<text text-anchor="middle" x="184.5" y="-87.5" font-family="sans" font-size="10.00">calib</text>
</g>
<!-- 4&#45;&gt;15 -->
<g id="edge24" class="edge">
<title>4&#45;&gt;15</title>
<path fill="none" stroke="grey" stroke-width="2" d="M233.43,-143.7C225.56,-135.22 215.94,-124.86 207.33,-115.58"/>
<polygon fill="grey" stroke="grey" stroke-width="2" points="209.75,-113.05 200.38,-108.1 204.62,-117.81 209.75,-113.05"/>
</g>
<!-- 5&#45;&gt;4 -->
<g id="edge8" class="edge">
<title>5&#45;&gt;4</title>
<path fill="none" stroke="grey" stroke-width="2" d="M248.14,-215.89C248.35,-207.84 248.58,-198.88 248.79,-190.66"/>
<polygon fill="grey" stroke="grey" stroke-width="2" points="252.3,-190.5 249.05,-180.41 245.3,-190.32 252.3,-190.5"/>
</g>
<!-- 6&#45;&gt;5 -->
<g id="edge10" class="edge">
<title>6&#45;&gt;5</title>
<path fill="none" stroke="grey" stroke-width="2" d="M247.5,-303.69C247.5,-296.21 247.5,-287.16 247.5,-278.36"/>
<polygon fill="grey" stroke="grey" stroke-width="2" points="251,-278.26 247.5,-268.26 244,-278.26 251,-278.26"/>
</g>
<!-- 7&#45;&gt;6 -->
<g id="edge11" class="edge">
<title>7&#45;&gt;6</title>
<path fill="none" stroke="grey" stroke-width="2" d="M245.24,-375.7C245.57,-367.98 245.97,-358.71 246.34,-350.11"/>
<polygon fill="grey" stroke="grey" stroke-width="2" points="249.84,-350.25 246.77,-340.1 242.84,-349.95 249.84,-350.25"/>
</g>
<!-- 8 -->
<g id="node9" class="node">
<title>8</title>
<path fill="none" stroke="#59d856" stroke-width="2" d="M127.5,-108C127.5,-108 97.5,-108 97.5,-108 91.5,-108 85.5,-102 85.5,-96 85.5,-96 85.5,-84 85.5,-84 85.5,-78 91.5,-72 97.5,-72 97.5,-72 127.5,-72 127.5,-72 133.5,-72 139.5,-78 139.5,-84 139.5,-84 139.5,-96 139.5,-96 139.5,-102 133.5,-108 127.5,-108"/>
<text text-anchor="middle" x="112.5" y="-93" font-family="sans" font-size="10.00">run3</text>
<text text-anchor="middle" x="112.5" y="-82" font-family="sans" font-size="10.00">rep: 1</text>
</g>
<!-- 8&#45;&gt;0 -->
<g id="edge2" class="edge">
<title>8&#45;&gt;0</title>
<path fill="none" stroke="grey" stroke-width="2" d="M130.3,-71.7C139.1,-63.14 149.88,-52.66 159.5,-43.3"/>
<polygon fill="grey" stroke="grey" stroke-width="2" points="162.18,-45.58 166.91,-36.1 157.3,-40.57 162.18,-45.58"/>
</g>
<!-- 9 -->
<g id="node10" class="node">
<title>9</title>
<path fill="none" stroke="#bed856" stroke-width="2" d="M63,-340C63,-340 12,-340 12,-340 6,-340 0,-334 0,-328 0,-328 0,-316 0,-316 0,-310 6,-304 12,-304 12,-304 63,-304 63,-304 69,-304 75,-310 75,-316 75,-316 75,-328 75,-328 75,-334 69,-340 63,-340"/>
<text text-anchor="middle" x="37.5" y="-319.5" font-family="sans" font-size="10.00">prepare_run</text>
</g>
<!-- 9&#45;&gt;8 -->
<g id="edge14" class="edge">
<title>9&#45;&gt;8</title>
<path fill="none" stroke="grey" stroke-width="2" d="M39.34,-303.74C43.25,-271.28 54.13,-199.44 78.5,-144 82.61,-134.64 88.26,-125.05 93.77,-116.64"/>
<polygon fill="grey" stroke="grey" stroke-width="2" points="96.67,-118.6 99.39,-108.37 90.88,-114.67 96.67,-118.6"/>
</g>
<!-- 11 -->
<g id="node12" class="node">
<title>11</title>
<path fill="none" stroke="#88d856" stroke-width="2" d="M129.5,-180C129.5,-180 99.5,-180 99.5,-180 93.5,-180 87.5,-174 87.5,-168 87.5,-168 87.5,-156 87.5,-156 87.5,-150 93.5,-144 99.5,-144 99.5,-144 129.5,-144 129.5,-144 135.5,-144 141.5,-150 141.5,-156 141.5,-156 141.5,-168 141.5,-168 141.5,-174 135.5,-180 129.5,-180"/>
<text text-anchor="middle" x="114.5" y="-159.5" font-family="sans" font-size="10.00">run2</text>
</g>
<!-- 9&#45;&gt;11 -->
<g id="edge17" class="edge">
<title>9&#45;&gt;11</title>
<path fill="none" stroke="grey" stroke-width="2" d="M45.5,-303.84C55.26,-282.99 72.33,-246.79 87.5,-216 91.81,-207.25 96.62,-197.74 100.96,-189.23"/>
<polygon fill="grey" stroke="grey" stroke-width="2" points="104.18,-190.62 105.63,-180.13 97.95,-187.43 104.18,-190.62"/>
</g>
<!-- 12 -->
<g id="node13" class="node">
<title>12</title>
<path fill="none" stroke="#56d8c1" stroke-width="2" d="M146.5,-268C146.5,-268 108.5,-268 108.5,-268 102.5,-268 96.5,-262 96.5,-256 96.5,-256 96.5,-228 96.5,-228 96.5,-222 102.5,-216 108.5,-216 108.5,-216 146.5,-216 146.5,-216 152.5,-216 158.5,-222 158.5,-228 158.5,-228 158.5,-256 158.5,-256 158.5,-262 152.5,-268 146.5,-268"/>
<text text-anchor="middle" x="127.5" y="-256" font-family="sans" font-size="10.00">run</text>
<text text-anchor="middle" x="127.5" y="-245" font-family="sans" font-size="10.00">a0: 0.2</text>
<text text-anchor="middle" x="127.5" y="-234" font-family="sans" font-size="10.00">b0: 0.015</text>
<text text-anchor="middle" x="127.5" y="-223" font-family="sans" font-size="10.00">delta: 0.2</text>
</g>
<!-- 9&#45;&gt;12 -->
<g id="edge19" class="edge">
<title>9&#45;&gt;12</title>
<path fill="none" stroke="grey" stroke-width="2" d="M57.47,-303.69C67.24,-295.23 79.3,-284.77 90.65,-274.94"/>
<polygon fill="grey" stroke="grey" stroke-width="2" points="93.09,-277.45 98.36,-268.26 88.51,-272.16 93.09,-277.45"/>
</g>
<!-- 10 -->
<g id="node11" class="node">
<title>10</title>
<path fill="none" stroke="#d85656" stroke-width="2" d="M87,-484C87,-484 34,-484 34,-484 28,-484 22,-478 22,-472 22,-472 22,-460 22,-460 22,-454 28,-448 34,-448 34,-448 87,-448 87,-448 93,-448 99,-454 99,-460 99,-460 99,-472 99,-472 99,-478 93,-484 87,-484"/>
<text text-anchor="middle" x="60.5" y="-469" font-family="sans" font-size="10.00">format</text>
<text text-anchor="middle" x="60.5" y="-458" font-family="sans" font-size="10.00">site: Tapajos</text>
</g>
<!-- 10&#45;&gt;9 -->
<g id="edge16" class="edge">
<title>10&#45;&gt;9</title>
<path fill="none" stroke="grey" stroke-width="2" d="M55.27,-447.97C52.28,-437.65 48.71,-424.17 46.5,-412 42.78,-391.5 40.49,-368.04 39.15,-350.36"/>
<polygon fill="grey" stroke="grey" stroke-width="2" points="42.62,-349.9 38.43,-340.17 35.64,-350.39 42.62,-349.9"/>
</g>
<!-- 13 -->
<g id="node14" class="node">
<title>13</title>
<path fill="none" stroke="#56d88a" stroke-width="2" d="M142.5,-340C142.5,-340 112.5,-340 112.5,-340 106.5,-340 100.5,-334 100.5,-328 100.5,-328 100.5,-316 100.5,-316 100.5,-310 106.5,-304 112.5,-304 112.5,-304 142.5,-304 142.5,-304 148.5,-304 154.5,-310 154.5,-316 154.5,-316 154.5,-328 154.5,-328 154.5,-334 148.5,-340 142.5,-340"/>
<text text-anchor="middle" x="127.5" y="-319.5" font-family="sans" font-size="10.00">spinup</text>
</g>
<!-- 10&#45;&gt;13 -->
<g id="edge22" class="edge">
<title>10&#45;&gt;13</title>
<path fill="none" stroke="grey" stroke-width="2" d="M61.52,-447.71C63.22,-429.1 67.69,-399.06 79.5,-376 84.78,-365.68 92.6,-355.83 100.4,-347.49"/>
<polygon fill="grey" stroke="grey" stroke-width="2" points="102.97,-349.87 107.49,-340.28 97.98,-344.96 102.97,-349.87"/>
</g>
<!-- 14 -->
<g id="node15" class="node">
<title>14</title>
<path fill="none" stroke="#d88d56" stroke-width="2" d="M168.5,-412C168.5,-412 100.5,-412 100.5,-412 94.5,-412 88.5,-406 88.5,-400 88.5,-400 88.5,-388 88.5,-388 88.5,-382 94.5,-376 100.5,-376 100.5,-376 168.5,-376 168.5,-376 174.5,-376 180.5,-382 180.5,-388 180.5,-388 180.5,-400 180.5,-400 180.5,-406 174.5,-412 168.5,-412"/>
<text text-anchor="middle" x="134.5" y="-391.5" font-family="sans" font-size="10.00">prepare_spinup</text>
</g>
<!-- 10&#45;&gt;14 -->
<g id="edge23" class="edge">
<title>10&#45;&gt;14</title>
<path fill="none" stroke="grey" stroke-width="2" d="M78.79,-447.7C87.93,-439.05 99.14,-428.45 109.1,-419.03"/>
<polygon fill="grey" stroke="grey" stroke-width="2" points="111.56,-421.52 116.42,-412.1 106.75,-416.43 111.56,-421.52"/>
</g>
<!-- 11&#45;&gt;8 -->
<g id="edge15" class="edge">
<title>11&#45;&gt;8</title>
<path fill="none" stroke="grey" stroke-width="2" d="M114.01,-143.7C113.79,-135.98 113.52,-126.71 113.27,-118.11"/>
<polygon fill="grey" stroke="grey" stroke-width="2" points="116.77,-118 112.99,-108.1 109.78,-118.2 116.77,-118"/>
</g>
<!-- 11&#45;&gt;15 -->
<g id="edge25" class="edge">
<title>11&#45;&gt;15</title>
<path fill="none" stroke="grey" stroke-width="2" d="M131.8,-143.7C140.36,-135.14 150.84,-124.66 160.2,-115.3"/>
<polygon fill="grey" stroke="grey" stroke-width="2" points="162.8,-117.65 167.4,-108.1 157.85,-112.7 162.8,-117.65"/>
</g>
<!-- 12&#45;&gt;11 -->
<g id="edge18" class="edge">
<title>12&#45;&gt;11</title>
<path fill="none" stroke="grey" stroke-width="2" d="M123.32,-215.89C121.96,-207.75 120.45,-198.68 119.06,-190.38"/>
<polygon fill="grey" stroke="grey" stroke-width="2" points="122.5,-189.7 117.4,-180.41 115.59,-190.85 122.5,-189.7"/>
</g>
<!-- 13&#45;&gt;12 -->
<g id="edge20" class="edge">
<title>13&#45;&gt;12</title>
<path fill="none" stroke="grey" stroke-width="2" d="M127.5,-303.69C127.5,-296.21 127.5,-287.16 127.5,-278.36"/>
<polygon fill="grey" stroke="grey" stroke-width="2" points="131,-278.26 127.5,-268.26 124,-278.26 131,-278.26"/>
</g>
<!-- 14&#45;&gt;13 -->
<g id="edge21" class="edge">
<title>14&#45;&gt;13</title>
<path fill="none" stroke="grey" stroke-width="2" d="M132.77,-375.7C132,-367.98 131.07,-358.71 130.21,-350.11"/>
<polygon fill="grey" stroke="grey" stroke-width="2" points="133.69,-349.71 129.21,-340.1 126.72,-350.4 133.69,-349.71"/>
</g>
<!-- 15&#45;&gt;0 -->
<g id="edge3" class="edge">
<title>15&#45;&gt;0</title>
<path fill="none" stroke="grey" stroke-width="2" d="M184.5,-71.7C184.5,-63.98 184.5,-54.71 184.5,-46.11"/>
<polygon fill="grey" stroke="grey" stroke-width="2" points="188,-46.1 184.5,-36.1 181,-46.1 188,-46.1"/>
</g>
</g>
</svg>
