<?xml version="1.0" encoding="UTF-8" standalone="no"?>
<!DOCTYPE svg PUBLIC "-//W3C//DTD SVG 1.1//EN"
 "http://www.w3.org/Graphics/SVG/1.1/DTD/svg11.dtd">
<!-- Generated by graphviz version 2.43.0 (0)
 -->
<!-- Title: snakemake_dag Pages: 1 -->
<svg width="427pt" height="519pt"
 viewBox="0.00 0.00 427.00 519.00" xmlns="http://www.w3.org/2000/svg" xmlns:xlink="http://www.w3.org/1999/xlink">
<g id="graph0" class="graph" transform="scale(1 1) rotate(0) translate(4 515)">
<title>snakemake_dag</title>
<polygon fill="white" stroke="transparent" points="-4,4 -4,-515 423,-515 423,4 -4,4"/>
<!-- 0 -->
<g id="node1" class="node">
<title>0</title>
<path fill="none" stroke="#d8bc56" stroke-width="2" d="M190.5,-36C190.5,-36 160.5,-36 160.5,-36 154.5,-36 148.5,-30 148.5,-24 148.5,-24 148.5,-12 148.5,-12 148.5,-6 154.5,0 160.5,0 160.5,0 190.5,0 190.5,0 196.5,0 202.5,-6 202.5,-12 202.5,-12 202.5,-24 202.5,-24 202.5,-30 196.5,-36 190.5,-36"/>
<text text-anchor="middle" x="175.5" y="-15.5" font-family="sans" font-size="10.00">all</text>
</g>
<!-- 1 -->
<g id="node2" class="node">
<title>1</title>
<path fill="none" stroke="#56d8c1" stroke-width="2" d="M77,-135C77,-135 12,-135 12,-135 6,-135 0,-129 0,-123 0,-123 0,-84 0,-84 0,-78 6,-72 12,-72 12,-72 77,-72 77,-72 83,-72 89,-78 89,-84 89,-84 89,-123 89,-123 89,-129 83,-135 77,-135"/>
<text text-anchor="middle" x="44.5" y="-123" font-family="sans" font-size="10.00">calib_structure</text>
<text text-anchor="middle" x="44.5" y="-112" font-family="sans" font-size="10.00">cra: 2.13</text>
<text text-anchor="middle" x="44.5" y="-101" font-family="sans" font-size="10.00">crberr: &#45;0.4641</text>
<text text-anchor="middle" x="44.5" y="-90" font-family="sans" font-size="10.00">m: 0.025</text>
<text text-anchor="middle" x="44.5" y="-79" font-family="sans" font-size="10.00">site: Tapajos</text>
</g>
<!-- 1&#45;&gt;0 -->
<g id="edge1" class="edge">
<title>1&#45;&gt;0</title>
<path fill="none" stroke="grey" stroke-width="2" d="M89.22,-74C105.7,-63.49 124.14,-51.74 139.73,-41.8"/>
<polygon fill="grey" stroke="grey" stroke-width="2" points="141.99,-44.51 148.54,-36.18 138.23,-38.61 141.99,-44.51"/>
</g>
<!-- 2 -->
<g id="node3" class="node">
<title>2</title>
<path fill="none" stroke="#d85656" stroke-width="2" d="M243,-121.5C243,-121.5 192,-121.5 192,-121.5 186,-121.5 180,-115.5 180,-109.5 180,-109.5 180,-97.5 180,-97.5 180,-91.5 186,-85.5 192,-85.5 192,-85.5 243,-85.5 243,-85.5 249,-85.5 255,-91.5 255,-97.5 255,-97.5 255,-109.5 255,-109.5 255,-115.5 249,-121.5 243,-121.5"/>
<text text-anchor="middle" x="217.5" y="-101" font-family="sans" font-size="10.00">calib_pheno</text>
</g>
<!-- 2&#45;&gt;0 -->
<g id="edge2" class="edge">
<title>2&#45;&gt;0</title>
<path fill="none" stroke="grey" stroke-width="2" d="M208.8,-85.2C203,-73.67 195.26,-58.29 188.71,-45.26"/>
<polygon fill="grey" stroke="grey" stroke-width="2" points="191.81,-43.64 184.19,-36.28 185.56,-46.79 191.81,-43.64"/>
</g>
<!-- 3 -->
<g id="node4" class="node">
<title>3</title>
<path fill="none" stroke="#bed856" stroke-width="2" d="M157.5,-207C157.5,-207 127.5,-207 127.5,-207 121.5,-207 115.5,-201 115.5,-195 115.5,-195 115.5,-183 115.5,-183 115.5,-177 121.5,-171 127.5,-171 127.5,-171 157.5,-171 157.5,-171 163.5,-171 169.5,-177 169.5,-183 169.5,-183 169.5,-195 169.5,-195 169.5,-201 163.5,-207 157.5,-207"/>
<text text-anchor="middle" x="142.5" y="-186.5" font-family="sans" font-size="10.00">run2</text>
</g>
<!-- 3&#45;&gt;2 -->
<g id="edge5" class="edge">
<title>3&#45;&gt;2</title>
<path fill="none" stroke="grey" stroke-width="2" d="M158.04,-170.7C168.8,-158.72 183.28,-142.59 195.26,-129.26"/>
<polygon fill="grey" stroke="grey" stroke-width="2" points="197.9,-131.56 201.98,-121.78 192.69,-126.88 197.9,-131.56"/>
</g>
<!-- 15 -->
<g id="node16" class="node">
<title>15</title>
<path fill="none" stroke="#88d856" stroke-width="2" d="M149.5,-121.5C149.5,-121.5 119.5,-121.5 119.5,-121.5 113.5,-121.5 107.5,-115.5 107.5,-109.5 107.5,-109.5 107.5,-97.5 107.5,-97.5 107.5,-91.5 113.5,-85.5 119.5,-85.5 119.5,-85.5 149.5,-85.5 149.5,-85.5 155.5,-85.5 161.5,-91.5 161.5,-97.5 161.5,-97.5 161.5,-109.5 161.5,-109.5 161.5,-115.5 155.5,-121.5 149.5,-121.5"/>
<text text-anchor="middle" x="134.5" y="-106.5" font-family="sans" font-size="10.00">run3</text>
<text text-anchor="middle" x="134.5" y="-95.5" font-family="sans" font-size="10.00">rep: 1</text>
</g>
<!-- 3&#45;&gt;15 -->
<g id="edge24" class="edge">
<title>3&#45;&gt;15</title>
<path fill="none" stroke="grey" stroke-width="2" d="M140.84,-170.7C139.77,-159.5 138.35,-144.69 137.13,-131.91"/>
<polygon fill="grey" stroke="grey" stroke-width="2" points="140.59,-131.4 136.16,-121.78 133.63,-132.07 140.59,-131.4"/>
</g>
<!-- 4 -->
<g id="node5" class="node">
<title>4</title>
<path fill="none" stroke="#59d856" stroke-width="2" d="M99,-367C99,-367 48,-367 48,-367 42,-367 36,-361 36,-355 36,-355 36,-343 36,-343 36,-337 42,-331 48,-331 48,-331 99,-331 99,-331 105,-331 111,-337 111,-343 111,-343 111,-355 111,-355 111,-361 105,-367 99,-367"/>
<text text-anchor="middle" x="73.5" y="-346.5" font-family="sans" font-size="10.00">prepare_run</text>
</g>
<!-- 4&#45;&gt;3 -->
<g id="edge7" class="edge">
<title>4&#45;&gt;3</title>
<path fill="none" stroke="grey" stroke-width="2" d="M81.02,-330.79C93.04,-303.25 116.71,-249.06 130.91,-216.53"/>
<polygon fill="grey" stroke="grey" stroke-width="2" points="134.2,-217.75 134.99,-207.19 127.78,-214.95 134.2,-217.75"/>
</g>
<!-- 6 -->
<g id="node7" class="node">
<title>6</title>
<path fill="none" stroke="#d88d56" stroke-width="2" d="M182.5,-295C182.5,-295 144.5,-295 144.5,-295 138.5,-295 132.5,-289 132.5,-283 132.5,-283 132.5,-255 132.5,-255 132.5,-249 138.5,-243 144.5,-243 144.5,-243 182.5,-243 182.5,-243 188.5,-243 194.5,-249 194.5,-255 194.5,-255 194.5,-283 194.5,-283 194.5,-289 188.5,-295 182.5,-295"/>
<text text-anchor="middle" x="163.5" y="-283" font-family="sans" font-size="10.00">run</text>
<text text-anchor="middle" x="163.5" y="-272" font-family="sans" font-size="10.00">a0: 0.2</text>
<text text-anchor="middle" x="163.5" y="-261" font-family="sans" font-size="10.00">b0: 0.015</text>
<text text-anchor="middle" x="163.5" y="-250" font-family="sans" font-size="10.00">delta: 0.2</text>
</g>
<!-- 4&#45;&gt;6 -->
<g id="edge10" class="edge">
<title>4&#45;&gt;6</title>
<path fill="none" stroke="grey" stroke-width="2" d="M93.47,-330.69C103.24,-322.23 115.3,-311.77 126.65,-301.94"/>
<polygon fill="grey" stroke="grey" stroke-width="2" points="129.09,-304.45 134.36,-295.26 124.51,-299.16 129.09,-304.45"/>
</g>
<!-- 4&#45;&gt;15 -->
<g id="edge23" class="edge">
<title>4&#45;&gt;15</title>
<path fill="none" stroke="grey" stroke-width="2" d="M75.45,-330.87C79.37,-298.94 89.3,-228.34 106.5,-171 110.55,-157.5 116.45,-143.02 121.79,-131.04"/>
<polygon fill="grey" stroke="grey" stroke-width="2" points="125.11,-132.18 126.09,-121.63 118.75,-129.27 125.11,-132.18"/>
</g>
<!-- 5 -->
<g id="node6" class="node">
<title>5</title>
<path fill="none" stroke="#568ad8" stroke-width="2" d="M124,-511C124,-511 69,-511 69,-511 63,-511 57,-505 57,-499 57,-499 57,-487 57,-487 57,-481 63,-475 69,-475 69,-475 124,-475 124,-475 130,-475 136,-481 136,-487 136,-487 136,-499 136,-499 136,-505 130,-511 124,-511"/>
<text text-anchor="middle" x="96.5" y="-496" font-family="sans" font-size="10.00">format</text>
<text text-anchor="middle" x="96.5" y="-485" font-family="sans" font-size="10.00">site: Paracou</text>
</g>
<!-- 5&#45;&gt;4 -->
<g id="edge9" class="edge">
<title>5&#45;&gt;4</title>
<path fill="none" stroke="grey" stroke-width="2" d="M91.27,-474.97C88.28,-464.65 84.71,-451.17 82.5,-439 78.78,-418.5 76.49,-395.04 75.15,-377.36"/>
<polygon fill="grey" stroke="grey" stroke-width="2" points="78.62,-376.9 74.43,-367.17 71.64,-377.39 78.62,-376.9"/>
</g>
<!-- 7 -->
<g id="node8" class="node">
<title>7</title>
<path fill="none" stroke="#56d88a" stroke-width="2" d="M178.5,-367C178.5,-367 148.5,-367 148.5,-367 142.5,-367 136.5,-361 136.5,-355 136.5,-355 136.5,-343 136.5,-343 136.5,-337 142.5,-331 148.5,-331 148.5,-331 178.5,-331 178.5,-331 184.5,-331 190.5,-337 190.5,-343 190.5,-343 190.5,-355 190.5,-355 190.5,-361 184.5,-367 178.5,-367"/>
<text text-anchor="middle" x="163.5" y="-346.5" font-family="sans" font-size="10.00">spinup</text>
</g>
<!-- 5&#45;&gt;7 -->
<g id="edge13" class="edge">
<title>5&#45;&gt;7</title>
<path fill="none" stroke="grey" stroke-width="2" d="M97.52,-474.71C99.22,-456.1 103.69,-426.06 115.5,-403 120.78,-392.68 128.6,-382.83 136.4,-374.49"/>
<polygon fill="grey" stroke="grey" stroke-width="2" points="138.97,-376.87 143.49,-367.28 133.98,-371.96 138.97,-376.87"/>
</g>
<!-- 8 -->
<g id="node9" class="node">
<title>8</title>
<path fill="none" stroke="#56c1d8" stroke-width="2" d="M204.5,-439C204.5,-439 136.5,-439 136.5,-439 130.5,-439 124.5,-433 124.5,-427 124.5,-427 124.5,-415 124.5,-415 124.5,-409 130.5,-403 136.5,-403 136.5,-403 204.5,-403 204.5,-403 210.5,-403 216.5,-409 216.5,-415 216.5,-415 216.5,-427 216.5,-427 216.5,-433 210.5,-439 204.5,-439"/>
<text text-anchor="middle" x="170.5" y="-418.5" font-family="sans" font-size="10.00">prepare_spinup</text>
</g>
<!-- 5&#45;&gt;8 -->
<g id="edge14" class="edge">
<title>5&#45;&gt;8</title>
<path fill="none" stroke="grey" stroke-width="2" d="M114.79,-474.7C123.93,-466.05 135.14,-455.45 145.1,-446.03"/>
<polygon fill="grey" stroke="grey" stroke-width="2" points="147.56,-448.52 152.42,-439.1 142.75,-443.43 147.56,-448.52"/>
</g>
<!-- 6&#45;&gt;3 -->
<g id="edge8" class="edge">
<title>6&#45;&gt;3</title>
<path fill="none" stroke="grey" stroke-width="2" d="M156.74,-242.89C154.52,-234.66 152.05,-225.48 149.8,-217.1"/>
<polygon fill="grey" stroke="grey" stroke-width="2" points="153.17,-216.16 147.19,-207.41 146.41,-217.98 153.17,-216.16"/>
</g>
<!-- 7&#45;&gt;6 -->
<g id="edge11" class="edge">
<title>7&#45;&gt;6</title>
<path fill="none" stroke="grey" stroke-width="2" d="M163.5,-330.69C163.5,-323.21 163.5,-314.16 163.5,-305.36"/>
<polygon fill="grey" stroke="grey" stroke-width="2" points="167,-305.26 163.5,-295.26 160,-305.26 167,-305.26"/>
</g>
<!-- 8&#45;&gt;7 -->
<g id="edge12" class="edge">
<title>8&#45;&gt;7</title>
<path fill="none" stroke="grey" stroke-width="2" d="M168.77,-402.7C168,-394.98 167.07,-385.71 166.21,-377.11"/>
<polygon fill="grey" stroke="grey" stroke-width="2" points="169.69,-376.71 165.21,-367.1 162.72,-377.4 169.69,-376.71"/>
</g>
<!-- 9 -->
<g id="node10" class="node">
<title>9</title>
<path fill="none" stroke="#bed856" stroke-width="2" d="M310.5,-207C310.5,-207 280.5,-207 280.5,-207 274.5,-207 268.5,-201 268.5,-195 268.5,-195 268.5,-183 268.5,-183 268.5,-177 274.5,-171 280.5,-171 280.5,-171 310.5,-171 310.5,-171 316.5,-171 322.5,-177 322.5,-183 322.5,-183 322.5,-195 322.5,-195 322.5,-201 316.5,-207 310.5,-207"/>
<text text-anchor="middle" x="295.5" y="-186.5" font-family="sans" font-size="10.00">run2</text>
</g>
<!-- 9&#45;&gt;2 -->
<g id="edge6" class="edge">
<title>9&#45;&gt;2</title>
<path fill="none" stroke="grey" stroke-width="2" d="M279.34,-170.7C268.15,-158.72 253.08,-142.59 240.63,-129.26"/>
<polygon fill="grey" stroke="grey" stroke-width="2" points="243.02,-126.7 233.64,-121.78 237.91,-131.48 243.02,-126.7"/>
</g>
<!-- 16 -->
<g id="node17" class="node">
<title>16</title>
<path fill="none" stroke="#88d856" stroke-width="2" d="M315.5,-121.5C315.5,-121.5 285.5,-121.5 285.5,-121.5 279.5,-121.5 273.5,-115.5 273.5,-109.5 273.5,-109.5 273.5,-97.5 273.5,-97.5 273.5,-91.5 279.5,-85.5 285.5,-85.5 285.5,-85.5 315.5,-85.5 315.5,-85.5 321.5,-85.5 327.5,-91.5 327.5,-97.5 327.5,-97.5 327.5,-109.5 327.5,-109.5 327.5,-115.5 321.5,-121.5 315.5,-121.5"/>
<text text-anchor="middle" x="300.5" y="-106.5" font-family="sans" font-size="10.00">run3</text>
<text text-anchor="middle" x="300.5" y="-95.5" font-family="sans" font-size="10.00">rep: 1</text>
</g>
<!-- 9&#45;&gt;16 -->
<g id="edge26" class="edge">
<title>9&#45;&gt;16</title>
<path fill="none" stroke="grey" stroke-width="2" d="M296.54,-170.7C297.21,-159.5 298.09,-144.69 298.86,-131.91"/>
<polygon fill="grey" stroke="grey" stroke-width="2" points="302.36,-131.97 299.47,-121.78 295.37,-131.55 302.36,-131.97"/>
</g>
<!-- 10 -->
<g id="node11" class="node">
<title>10</title>
<path fill="none" stroke="#59d856" stroke-width="2" d="M407,-367C407,-367 356,-367 356,-367 350,-367 344,-361 344,-355 344,-355 344,-343 344,-343 344,-337 350,-331 356,-331 356,-331 407,-331 407,-331 413,-331 419,-337 419,-343 419,-343 419,-355 419,-355 419,-361 413,-367 407,-367"/>
<text text-anchor="middle" x="381.5" y="-346.5" font-family="sans" font-size="10.00">prepare_run</text>
</g>
<!-- 10&#45;&gt;9 -->
<g id="edge15" class="edge">
<title>10&#45;&gt;9</title>
<path fill="none" stroke="grey" stroke-width="2" d="M374.3,-330.87C365.21,-309.74 348.67,-272.95 331.5,-243 326.24,-233.83 319.93,-224.17 314.07,-215.64"/>
<polygon fill="grey" stroke="grey" stroke-width="2" points="316.79,-213.42 308.19,-207.24 311.05,-217.44 316.79,-213.42"/>
</g>
<!-- 12 -->
<g id="node13" class="node">
<title>12</title>
<path fill="none" stroke="#d88d56" stroke-width="2" d="M310.5,-295C310.5,-295 272.5,-295 272.5,-295 266.5,-295 260.5,-289 260.5,-283 260.5,-283 260.5,-255 260.5,-255 260.5,-249 266.5,-243 272.5,-243 272.5,-243 310.5,-243 310.5,-243 316.5,-243 322.5,-249 322.5,-255 322.5,-255 322.5,-283 322.5,-283 322.5,-289 316.5,-295 310.5,-295"/>
<text text-anchor="middle" x="291.5" y="-283" font-family="sans" font-size="10.00">run</text>
<text text-anchor="middle" x="291.5" y="-272" font-family="sans" font-size="10.00">a0: 0.2</text>
<text text-anchor="middle" x="291.5" y="-261" font-family="sans" font-size="10.00">b0: 0.015</text>
<text text-anchor="middle" x="291.5" y="-250" font-family="sans" font-size="10.00">delta: 0.2</text>
</g>
<!-- 10&#45;&gt;12 -->
<g id="edge18" class="edge">
<title>10&#45;&gt;12</title>
<path fill="none" stroke="grey" stroke-width="2" d="M361.53,-330.69C351.76,-322.23 339.7,-311.77 328.35,-301.94"/>
<polygon fill="grey" stroke="grey" stroke-width="2" points="330.49,-299.16 320.64,-295.26 325.91,-304.45 330.49,-299.16"/>
</g>
<!-- 10&#45;&gt;16 -->
<g id="edge25" class="edge">
<title>10&#45;&gt;16</title>
<path fill="none" stroke="grey" stroke-width="2" d="M378.77,-330.69C375.26,-309.7 368.51,-273.35 359.5,-243 349.72,-210.09 344.98,-202.58 331.5,-171 325.78,-157.6 318.98,-142.89 313.21,-130.72"/>
<polygon fill="grey" stroke="grey" stroke-width="2" points="316.31,-129.1 308.84,-121.58 309.99,-132.12 316.31,-129.1"/>
</g>
<!-- 11 -->
<g id="node12" class="node">
<title>11</title>
<path fill="none" stroke="#568ad8" stroke-width="2" d="M381,-511C381,-511 328,-511 328,-511 322,-511 316,-505 316,-499 316,-499 316,-487 316,-487 316,-481 322,-475 328,-475 328,-475 381,-475 381,-475 387,-475 393,-481 393,-487 393,-487 393,-499 393,-499 393,-505 387,-511 381,-511"/>
<text text-anchor="middle" x="354.5" y="-496" font-family="sans" font-size="10.00">format</text>
<text text-anchor="middle" x="354.5" y="-485" font-family="sans" font-size="10.00">site: Tapajos</text>
</g>
<!-- 11&#45;&gt;10 -->
<g id="edge17" class="edge">
<title>11&#45;&gt;10</title>
<path fill="none" stroke="grey" stroke-width="2" d="M359.54,-474.93C362.45,-464.6 366.02,-451.12 368.5,-439 372.7,-418.48 376.06,-395.02 378.32,-377.34"/>
<polygon fill="grey" stroke="grey" stroke-width="2" points="381.83,-377.52 379.58,-367.16 374.88,-376.66 381.83,-377.52"/>
</g>
<!-- 13 -->
<g id="node14" class="node">
<title>13</title>
<path fill="none" stroke="#56d88a" stroke-width="2" d="M306.5,-367C306.5,-367 276.5,-367 276.5,-367 270.5,-367 264.5,-361 264.5,-355 264.5,-355 264.5,-343 264.5,-343 264.5,-337 270.5,-331 276.5,-331 276.5,-331 306.5,-331 306.5,-331 312.5,-331 318.5,-337 318.5,-343 318.5,-343 318.5,-355 318.5,-355 318.5,-361 312.5,-367 306.5,-367"/>
<text text-anchor="middle" x="291.5" y="-346.5" font-family="sans" font-size="10.00">spinup</text>
</g>
<!-- 11&#45;&gt;13 -->
<g id="edge21" class="edge">
<title>11&#45;&gt;13</title>
<path fill="none" stroke="grey" stroke-width="2" d="M353.28,-474.81C351.43,-456.28 346.81,-426.31 335.5,-403 330.6,-392.89 323.36,-383.06 316.17,-374.67"/>
<polygon fill="grey" stroke="grey" stroke-width="2" points="318.66,-372.2 309.37,-367.1 313.45,-376.88 318.66,-372.2"/>
</g>
<!-- 14 -->
<g id="node15" class="node">
<title>14</title>
<path fill="none" stroke="#56c1d8" stroke-width="2" d="M314.5,-439C314.5,-439 246.5,-439 246.5,-439 240.5,-439 234.5,-433 234.5,-427 234.5,-427 234.5,-415 234.5,-415 234.5,-409 240.5,-403 246.5,-403 246.5,-403 314.5,-403 314.5,-403 320.5,-403 326.5,-409 326.5,-415 326.5,-415 326.5,-427 326.5,-427 326.5,-433 320.5,-439 314.5,-439"/>
<text text-anchor="middle" x="280.5" y="-418.5" font-family="sans" font-size="10.00">prepare_spinup</text>
</g>
<!-- 11&#45;&gt;14 -->
<g id="edge22" class="edge">
<title>11&#45;&gt;14</title>
<path fill="none" stroke="grey" stroke-width="2" d="M336.21,-474.7C327.07,-466.05 315.86,-455.45 305.9,-446.03"/>
<polygon fill="grey" stroke="grey" stroke-width="2" points="308.25,-443.43 298.58,-439.1 303.44,-448.52 308.25,-443.43"/>
</g>
<!-- 12&#45;&gt;9 -->
<g id="edge16" class="edge">
<title>12&#45;&gt;9</title>
<path fill="none" stroke="grey" stroke-width="2" d="M292.79,-242.89C293.2,-234.84 293.66,-225.88 294.08,-217.66"/>
<polygon fill="grey" stroke="grey" stroke-width="2" points="297.59,-217.58 294.61,-207.41 290.6,-217.22 297.59,-217.58"/>
</g>
<!-- 13&#45;&gt;12 -->
<g id="edge19" class="edge">
<title>13&#45;&gt;12</title>
<path fill="none" stroke="grey" stroke-width="2" d="M291.5,-330.69C291.5,-323.21 291.5,-314.16 291.5,-305.36"/>
<polygon fill="grey" stroke="grey" stroke-width="2" points="295,-305.26 291.5,-295.26 288,-305.26 295,-305.26"/>
</g>
<!-- 14&#45;&gt;13 -->
<g id="edge20" class="edge">
<title>14&#45;&gt;13</title>
<path fill="none" stroke="grey" stroke-width="2" d="M283.22,-402.7C284.43,-394.98 285.89,-385.71 287.24,-377.11"/>
<polygon fill="grey" stroke="grey" stroke-width="2" points="290.72,-377.53 288.81,-367.1 283.8,-376.44 290.72,-377.53"/>
</g>
<!-- 15&#45;&gt;0 -->
<g id="edge3" class="edge">
<title>15&#45;&gt;0</title>
<path fill="none" stroke="grey" stroke-width="2" d="M143,-85.2C148.66,-73.67 156.21,-58.29 162.6,-45.26"/>
<polygon fill="grey" stroke="grey" stroke-width="2" points="165.75,-46.8 167.02,-36.28 159.47,-43.71 165.75,-46.8"/>
</g>
<!-- 16&#45;&gt;0 -->
<g id="edge4" class="edge">
<title>16&#45;&gt;0</title>
<path fill="none" stroke="grey" stroke-width="2" d="M280.95,-85.48C275.44,-80.93 269.34,-76.13 263.5,-72 246.92,-60.27 227.67,-48.48 211.41,-39.01"/>
<polygon fill="grey" stroke="grey" stroke-width="2" points="213.13,-35.97 202.72,-34.01 209.64,-42.03 213.13,-35.97"/>
</g>
</g>
</svg>
