<?xml version="1.0" encoding="UTF-8" standalone="no"?>
<!DOCTYPE svg PUBLIC "-//W3C//DTD SVG 1.1//EN"
 "http://www.w3.org/Graphics/SVG/1.1/DTD/svg11.dtd">
<!-- Generated by graphviz version 2.43.0 (0)
 -->
<!-- Title: snakemake_dag Pages: 1 -->
<svg width="497pt" height="503pt"
 viewBox="0.00 0.00 496.50 503.00" xmlns="http://www.w3.org/2000/svg" xmlns:xlink="http://www.w3.org/1999/xlink">
<g id="graph0" class="graph" transform="scale(1 1) rotate(0) translate(4 499)">
<title>snakemake_dag</title>
<polygon fill="white" stroke="transparent" points="-4,4 -4,-499 492.5,-499 492.5,4 -4,4"/>
<!-- 0 -->
<g id="node1" class="node">
<title>0</title>
<path fill="none" stroke="#56d882" stroke-width="2" d="M198.5,-36C198.5,-36 168.5,-36 168.5,-36 162.5,-36 156.5,-30 156.5,-24 156.5,-24 156.5,-12 156.5,-12 156.5,-6 162.5,0 168.5,0 168.5,0 198.5,0 198.5,0 204.5,0 210.5,-6 210.5,-12 210.5,-12 210.5,-24 210.5,-24 210.5,-30 204.5,-36 198.5,-36"/>
<text text-anchor="middle" x="183.5" y="-15.5" font-family="sans" font-size="10.00">all</text>
</g>
<!-- 1 -->
<g id="node2" class="node">
<title>1</title>
<path fill="none" stroke="#d85656" stroke-width="2" d="M85,-108C85,-108 12,-108 12,-108 6,-108 0,-102 0,-96 0,-96 0,-84 0,-84 0,-78 6,-72 12,-72 12,-72 85,-72 85,-72 91,-72 97,-78 97,-84 97,-84 97,-96 97,-96 97,-102 91,-108 85,-108"/>
<text text-anchor="middle" x="48.5" y="-87.5" font-family="sans" font-size="10.00">merge_structure</text>
</g>
<!-- 1&#45;&gt;0 -->
<g id="edge1" class="edge">
<title>1&#45;&gt;0</title>
<path fill="none" stroke="grey" stroke-width="2" d="M81.52,-71.88C101.43,-61.56 126.79,-48.4 147.25,-37.8"/>
<polygon fill="grey" stroke="grey" stroke-width="2" points="149,-40.83 156.26,-33.12 145.77,-34.62 149,-40.83"/>
</g>
<!-- 2 -->
<g id="node3" class="node">
<title>2</title>
<path fill="none" stroke="#56d8a9" stroke-width="2" d="M80.5,-180C80.5,-180 16.5,-180 16.5,-180 10.5,-180 4.5,-174 4.5,-168 4.5,-168 4.5,-156 4.5,-156 4.5,-150 10.5,-144 16.5,-144 16.5,-144 80.5,-144 80.5,-144 86.5,-144 92.5,-150 92.5,-156 92.5,-156 92.5,-168 92.5,-168 92.5,-174 86.5,-180 80.5,-180"/>
<text text-anchor="middle" x="48.5" y="-159.5" font-family="sans" font-size="10.00">filter_structure</text>
</g>
<!-- 2&#45;&gt;1 -->
<g id="edge5" class="edge">
<title>2&#45;&gt;1</title>
<path fill="none" stroke="grey" stroke-width="2" d="M48.5,-143.7C48.5,-135.98 48.5,-126.71 48.5,-118.11"/>
<polygon fill="grey" stroke="grey" stroke-width="2" points="52,-118.1 48.5,-108.1 45,-118.1 52,-118.1"/>
</g>
<!-- 3 -->
<g id="node4" class="node">
<title>3</title>
<path fill="none" stroke="#80d856" stroke-width="2" d="M81,-279C81,-279 16,-279 16,-279 10,-279 4,-273 4,-267 4,-267 4,-228 4,-228 4,-222 10,-216 16,-216 16,-216 81,-216 81,-216 87,-216 93,-222 93,-228 93,-228 93,-267 93,-267 93,-273 87,-279 81,-279"/>
<text text-anchor="middle" x="48.5" y="-267" font-family="sans" font-size="10.00">calib_structure</text>
<text text-anchor="middle" x="48.5" y="-256" font-family="sans" font-size="10.00">cra: 2.13</text>
<text text-anchor="middle" x="48.5" y="-245" font-family="sans" font-size="10.00">crberr: &#45;0.4641</text>
<text text-anchor="middle" x="48.5" y="-234" font-family="sans" font-size="10.00">m: 0.025</text>
<text text-anchor="middle" x="48.5" y="-223" font-family="sans" font-size="10.00">site: Tapajos</text>
</g>
<!-- 3&#45;&gt;2 -->
<g id="edge6" class="edge">
<title>3&#45;&gt;2</title>
<path fill="none" stroke="grey" stroke-width="2" d="M48.5,-215.88C48.5,-207.47 48.5,-198.4 48.5,-190.19"/>
<polygon fill="grey" stroke="grey" stroke-width="2" points="52,-190.03 48.5,-180.03 45,-190.03 52,-190.03"/>
</g>
<!-- 4 -->
<g id="node5" class="node">
<title>4</title>
<path fill="none" stroke="#d6d856" stroke-width="2" d="M251,-108C251,-108 200,-108 200,-108 194,-108 188,-102 188,-96 188,-96 188,-84 188,-84 188,-78 194,-72 200,-72 200,-72 251,-72 251,-72 257,-72 263,-78 263,-84 263,-84 263,-96 263,-96 263,-102 257,-108 251,-108"/>
<text text-anchor="middle" x="225.5" y="-87.5" font-family="sans" font-size="10.00">calib_pheno</text>
</g>
<!-- 4&#45;&gt;0 -->
<g id="edge2" class="edge">
<title>4&#45;&gt;0</title>
<path fill="none" stroke="grey" stroke-width="2" d="M215.12,-71.7C210.24,-63.56 204.31,-53.69 198.92,-44.7"/>
<polygon fill="grey" stroke="grey" stroke-width="2" points="201.91,-42.88 193.76,-36.1 195.91,-46.48 201.91,-42.88"/>
</g>
<!-- 5 -->
<g id="node6" class="node">
<title>5</title>
<path fill="none" stroke="#d88556" stroke-width="2" d="M209.5,-180C209.5,-180 179.5,-180 179.5,-180 173.5,-180 167.5,-174 167.5,-168 167.5,-168 167.5,-156 167.5,-156 167.5,-150 173.5,-144 179.5,-144 179.5,-144 209.5,-144 209.5,-144 215.5,-144 221.5,-150 221.5,-156 221.5,-156 221.5,-168 221.5,-168 221.5,-174 215.5,-180 209.5,-180"/>
<text text-anchor="middle" x="194.5" y="-159.5" font-family="sans" font-size="10.00">run2</text>
</g>
<!-- 5&#45;&gt;4 -->
<g id="edge7" class="edge">
<title>5&#45;&gt;4</title>
<path fill="none" stroke="grey" stroke-width="2" d="M202.16,-143.7C205.69,-135.73 209.96,-126.1 213.87,-117.26"/>
<polygon fill="grey" stroke="grey" stroke-width="2" points="217.08,-118.67 217.93,-108.1 210.68,-115.83 217.08,-118.67"/>
</g>
<!-- 17 -->
<g id="node18" class="node">
<title>17</title>
<path fill="none" stroke="#56d8d8" stroke-width="2" d="M157.5,-108C157.5,-108 127.5,-108 127.5,-108 121.5,-108 115.5,-102 115.5,-96 115.5,-96 115.5,-84 115.5,-84 115.5,-78 121.5,-72 127.5,-72 127.5,-72 157.5,-72 157.5,-72 163.5,-72 169.5,-78 169.5,-84 169.5,-84 169.5,-96 169.5,-96 169.5,-102 163.5,-108 157.5,-108"/>
<text text-anchor="middle" x="142.5" y="-93" font-family="sans" font-size="10.00">run3</text>
<text text-anchor="middle" x="142.5" y="-82" font-family="sans" font-size="10.00">rep: 1</text>
</g>
<!-- 5&#45;&gt;17 -->
<g id="edge26" class="edge">
<title>5&#45;&gt;17</title>
<path fill="none" stroke="grey" stroke-width="2" d="M181.65,-143.7C175.47,-135.39 167.96,-125.28 161.18,-116.14"/>
<polygon fill="grey" stroke="grey" stroke-width="2" points="163.98,-114.04 155.21,-108.1 158.36,-118.22 163.98,-114.04"/>
</g>
<!-- 6 -->
<g id="node7" class="node">
<title>6</title>
<path fill="none" stroke="#59d856" stroke-width="2" d="M171,-351C171,-351 120,-351 120,-351 114,-351 108,-345 108,-339 108,-339 108,-327 108,-327 108,-321 114,-315 120,-315 120,-315 171,-315 171,-315 177,-315 183,-321 183,-327 183,-327 183,-339 183,-339 183,-345 177,-351 171,-351"/>
<text text-anchor="middle" x="145.5" y="-330.5" font-family="sans" font-size="10.00">prepare_run</text>
</g>
<!-- 6&#45;&gt;5 -->
<g id="edge9" class="edge">
<title>6&#45;&gt;5</title>
<path fill="none" stroke="grey" stroke-width="2" d="M150.47,-314.87C158.98,-285.51 176.41,-225.38 186.61,-190.23"/>
<polygon fill="grey" stroke="grey" stroke-width="2" points="190.1,-190.76 189.52,-180.18 183.37,-188.81 190.1,-190.76"/>
</g>
<!-- 8 -->
<g id="node9" class="node">
<title>8</title>
<path fill="none" stroke="#afd856" stroke-width="2" d="M247.5,-273.5C247.5,-273.5 209.5,-273.5 209.5,-273.5 203.5,-273.5 197.5,-267.5 197.5,-261.5 197.5,-261.5 197.5,-233.5 197.5,-233.5 197.5,-227.5 203.5,-221.5 209.5,-221.5 209.5,-221.5 247.5,-221.5 247.5,-221.5 253.5,-221.5 259.5,-227.5 259.5,-233.5 259.5,-233.5 259.5,-261.5 259.5,-261.5 259.5,-267.5 253.5,-273.5 247.5,-273.5"/>
<text text-anchor="middle" x="228.5" y="-261.5" font-family="sans" font-size="10.00">run</text>
<text text-anchor="middle" x="228.5" y="-250.5" font-family="sans" font-size="10.00">a0: 0.2</text>
<text text-anchor="middle" x="228.5" y="-239.5" font-family="sans" font-size="10.00">b0: 0.015</text>
<text text-anchor="middle" x="228.5" y="-228.5" font-family="sans" font-size="10.00">delta: 0.2</text>
</g>
<!-- 6&#45;&gt;8 -->
<g id="edge12" class="edge">
<title>6&#45;&gt;8</title>
<path fill="none" stroke="grey" stroke-width="2" d="M162.7,-314.7C172.36,-304.98 184.73,-292.53 196.13,-281.06"/>
<polygon fill="grey" stroke="grey" stroke-width="2" points="198.88,-283.26 203.45,-273.7 193.92,-278.33 198.88,-283.26"/>
</g>
<!-- 6&#45;&gt;17 -->
<g id="edge25" class="edge">
<title>6&#45;&gt;17</title>
<path fill="none" stroke="grey" stroke-width="2" d="M145.28,-314.67C144.77,-273.24 143.46,-168.22 142.84,-118.24"/>
<polygon fill="grey" stroke="grey" stroke-width="2" points="146.34,-118.13 142.71,-108.18 139.34,-118.22 146.34,-118.13"/>
</g>
<!-- 7 -->
<g id="node8" class="node">
<title>7</title>
<path fill="none" stroke="#5682d8" stroke-width="2" d="M210,-495C210,-495 155,-495 155,-495 149,-495 143,-489 143,-483 143,-483 143,-471 143,-471 143,-465 149,-459 155,-459 155,-459 210,-459 210,-459 216,-459 222,-465 222,-471 222,-471 222,-483 222,-483 222,-489 216,-495 210,-495"/>
<text text-anchor="middle" x="182.5" y="-480" font-family="sans" font-size="10.00">format</text>
<text text-anchor="middle" x="182.5" y="-469" font-family="sans" font-size="10.00">site: Paracou</text>
</g>
<!-- 7&#45;&gt;6 -->
<g id="edge11" class="edge">
<title>7&#45;&gt;6</title>
<path fill="none" stroke="grey" stroke-width="2" d="M177.94,-458.82C175.19,-448.45 171.63,-434.97 168.5,-423 163.09,-402.29 157.03,-378.84 152.49,-361.21"/>
<polygon fill="grey" stroke="grey" stroke-width="2" points="155.76,-359.88 149.88,-351.07 148.98,-361.63 155.76,-359.88"/>
</g>
<!-- 9 -->
<g id="node10" class="node">
<title>9</title>
<path fill="none" stroke="#d8ac56" stroke-width="2" d="M243.5,-351C243.5,-351 213.5,-351 213.5,-351 207.5,-351 201.5,-345 201.5,-339 201.5,-339 201.5,-327 201.5,-327 201.5,-321 207.5,-315 213.5,-315 213.5,-315 243.5,-315 243.5,-315 249.5,-315 255.5,-321 255.5,-327 255.5,-327 255.5,-339 255.5,-339 255.5,-345 249.5,-351 243.5,-351"/>
<text text-anchor="middle" x="228.5" y="-330.5" font-family="sans" font-size="10.00">spinup</text>
</g>
<!-- 7&#45;&gt;9 -->
<g id="edge15" class="edge">
<title>7&#45;&gt;9</title>
<path fill="none" stroke="grey" stroke-width="2" d="M184.79,-458.91C187.54,-440.72 192.89,-411.27 201.5,-387 204.71,-377.95 209.15,-368.48 213.5,-360.09"/>
<polygon fill="grey" stroke="grey" stroke-width="2" points="216.65,-361.62 218.31,-351.16 210.49,-358.3 216.65,-361.62"/>
</g>
<!-- 10 -->
<g id="node11" class="node">
<title>10</title>
<path fill="none" stroke="#56a9d8" stroke-width="2" d="M290.5,-423C290.5,-423 222.5,-423 222.5,-423 216.5,-423 210.5,-417 210.5,-411 210.5,-411 210.5,-399 210.5,-399 210.5,-393 216.5,-387 222.5,-387 222.5,-387 290.5,-387 290.5,-387 296.5,-387 302.5,-393 302.5,-399 302.5,-399 302.5,-411 302.5,-411 302.5,-417 296.5,-423 290.5,-423"/>
<text text-anchor="middle" x="256.5" y="-402.5" font-family="sans" font-size="10.00">prepare_spinup</text>
</g>
<!-- 7&#45;&gt;10 -->
<g id="edge16" class="edge">
<title>7&#45;&gt;10</title>
<path fill="none" stroke="grey" stroke-width="2" d="M200.79,-458.7C209.93,-450.05 221.14,-439.45 231.1,-430.03"/>
<polygon fill="grey" stroke="grey" stroke-width="2" points="233.56,-432.52 238.42,-423.1 228.75,-427.43 233.56,-432.52"/>
</g>
<!-- 8&#45;&gt;5 -->
<g id="edge10" class="edge">
<title>8&#45;&gt;5</title>
<path fill="none" stroke="grey" stroke-width="2" d="M218.3,-221.45C214.18,-211.33 209.42,-199.64 205.24,-189.39"/>
<polygon fill="grey" stroke="grey" stroke-width="2" points="208.47,-188.04 201.46,-180.1 201.99,-190.68 208.47,-188.04"/>
</g>
<!-- 9&#45;&gt;8 -->
<g id="edge13" class="edge">
<title>9&#45;&gt;8</title>
<path fill="none" stroke="grey" stroke-width="2" d="M228.5,-314.7C228.5,-305.81 228.5,-294.65 228.5,-284.03"/>
<polygon fill="grey" stroke="grey" stroke-width="2" points="232,-283.7 228.5,-273.7 225,-283.7 232,-283.7"/>
</g>
<!-- 10&#45;&gt;9 -->
<g id="edge14" class="edge">
<title>10&#45;&gt;9</title>
<path fill="none" stroke="grey" stroke-width="2" d="M249.58,-386.7C246.43,-378.81 242.62,-369.3 239.12,-360.55"/>
<polygon fill="grey" stroke="grey" stroke-width="2" points="242.31,-359.09 235.34,-351.1 235.81,-361.69 242.31,-359.09"/>
</g>
<!-- 11 -->
<g id="node12" class="node">
<title>11</title>
<path fill="none" stroke="#d88556" stroke-width="2" d="M289.5,-180C289.5,-180 259.5,-180 259.5,-180 253.5,-180 247.5,-174 247.5,-168 247.5,-168 247.5,-156 247.5,-156 247.5,-150 253.5,-144 259.5,-144 259.5,-144 289.5,-144 289.5,-144 295.5,-144 301.5,-150 301.5,-156 301.5,-156 301.5,-168 301.5,-168 301.5,-174 295.5,-180 289.5,-180"/>
<text text-anchor="middle" x="274.5" y="-159.5" font-family="sans" font-size="10.00">run2</text>
</g>
<!-- 11&#45;&gt;4 -->
<g id="edge8" class="edge">
<title>11&#45;&gt;4</title>
<path fill="none" stroke="grey" stroke-width="2" d="M262.39,-143.7C256.63,-135.47 249.64,-125.48 243.29,-116.42"/>
<polygon fill="grey" stroke="grey" stroke-width="2" points="246.08,-114.29 237.47,-108.1 240.34,-118.3 246.08,-114.29"/>
</g>
<!-- 18 -->
<g id="node19" class="node">
<title>18</title>
<path fill="none" stroke="#56d8d8" stroke-width="2" d="M323.5,-108C323.5,-108 293.5,-108 293.5,-108 287.5,-108 281.5,-102 281.5,-96 281.5,-96 281.5,-84 281.5,-84 281.5,-78 287.5,-72 293.5,-72 293.5,-72 323.5,-72 323.5,-72 329.5,-72 335.5,-78 335.5,-84 335.5,-84 335.5,-96 335.5,-96 335.5,-102 329.5,-108 323.5,-108"/>
<text text-anchor="middle" x="308.5" y="-93" font-family="sans" font-size="10.00">run3</text>
<text text-anchor="middle" x="308.5" y="-82" font-family="sans" font-size="10.00">rep: 1</text>
</g>
<!-- 11&#45;&gt;18 -->
<g id="edge28" class="edge">
<title>11&#45;&gt;18</title>
<path fill="none" stroke="grey" stroke-width="2" d="M282.9,-143.7C286.77,-135.73 291.45,-126.1 295.74,-117.26"/>
<polygon fill="grey" stroke="grey" stroke-width="2" points="298.97,-118.63 300.19,-108.1 292.67,-115.57 298.97,-118.63"/>
</g>
<!-- 12 -->
<g id="node13" class="node">
<title>12</title>
<path fill="none" stroke="#59d856" stroke-width="2" d="M355,-351C355,-351 304,-351 304,-351 298,-351 292,-345 292,-339 292,-339 292,-327 292,-327 292,-321 298,-315 304,-315 304,-315 355,-315 355,-315 361,-315 367,-321 367,-327 367,-327 367,-339 367,-339 367,-345 361,-351 355,-351"/>
<text text-anchor="middle" x="329.5" y="-330.5" font-family="sans" font-size="10.00">prepare_run</text>
</g>
<!-- 12&#45;&gt;11 -->
<g id="edge17" class="edge">
<title>12&#45;&gt;11</title>
<path fill="none" stroke="grey" stroke-width="2" d="M323.92,-314.87C314.33,-285.38 294.63,-224.86 283.21,-189.77"/>
<polygon fill="grey" stroke="grey" stroke-width="2" points="286.51,-188.61 280.09,-180.18 279.86,-190.77 286.51,-188.61"/>
</g>
<!-- 14 -->
<g id="node15" class="node">
<title>14</title>
<path fill="none" stroke="#afd856" stroke-width="2" d="M407.5,-273.5C407.5,-273.5 369.5,-273.5 369.5,-273.5 363.5,-273.5 357.5,-267.5 357.5,-261.5 357.5,-261.5 357.5,-233.5 357.5,-233.5 357.5,-227.5 363.5,-221.5 369.5,-221.5 369.5,-221.5 407.5,-221.5 407.5,-221.5 413.5,-221.5 419.5,-227.5 419.5,-233.5 419.5,-233.5 419.5,-261.5 419.5,-261.5 419.5,-267.5 413.5,-273.5 407.5,-273.5"/>
<text text-anchor="middle" x="388.5" y="-261.5" font-family="sans" font-size="10.00">run</text>
<text text-anchor="middle" x="388.5" y="-250.5" font-family="sans" font-size="10.00">a0: 0.2</text>
<text text-anchor="middle" x="388.5" y="-239.5" font-family="sans" font-size="10.00">b0: 0.015</text>
<text text-anchor="middle" x="388.5" y="-228.5" font-family="sans" font-size="10.00">delta: 0.2</text>
</g>
<!-- 12&#45;&gt;14 -->
<g id="edge20" class="edge">
<title>12&#45;&gt;14</title>
<path fill="none" stroke="grey" stroke-width="2" d="M341.72,-314.7C348.4,-305.26 356.89,-293.24 364.8,-282.05"/>
<polygon fill="grey" stroke="grey" stroke-width="2" points="367.78,-283.89 370.69,-273.7 362.06,-279.85 367.78,-283.89"/>
</g>
<!-- 12&#45;&gt;18 -->
<g id="edge27" class="edge">
<title>12&#45;&gt;18</title>
<path fill="none" stroke="grey" stroke-width="2" d="M327.99,-314.67C324.38,-273.24 315.23,-168.22 310.87,-118.24"/>
<polygon fill="grey" stroke="grey" stroke-width="2" points="314.35,-117.83 310,-108.18 307.38,-118.44 314.35,-117.83"/>
</g>
<!-- 13 -->
<g id="node14" class="node">
<title>13</title>
<path fill="none" stroke="#5682d8" stroke-width="2" d="M395,-495C395,-495 342,-495 342,-495 336,-495 330,-489 330,-483 330,-483 330,-471 330,-471 330,-465 336,-459 342,-459 342,-459 395,-459 395,-459 401,-459 407,-465 407,-471 407,-471 407,-483 407,-483 407,-489 401,-495 395,-495"/>
<text text-anchor="middle" x="368.5" y="-480" font-family="sans" font-size="10.00">format</text>
<text text-anchor="middle" x="368.5" y="-469" font-family="sans" font-size="10.00">site: Tapajos</text>
</g>
<!-- 13&#45;&gt;12 -->
<g id="edge19" class="edge">
<title>13&#45;&gt;12</title>
<path fill="none" stroke="grey" stroke-width="2" d="M363.8,-458.87C357.12,-434.56 344.83,-389.82 336.92,-361.01"/>
<polygon fill="grey" stroke="grey" stroke-width="2" points="340.24,-359.91 334.22,-351.19 333.49,-361.76 340.24,-359.91"/>
</g>
<!-- 15 -->
<g id="node16" class="node">
<title>15</title>
<path fill="none" stroke="#d8ac56" stroke-width="2" d="M427.5,-351C427.5,-351 397.5,-351 397.5,-351 391.5,-351 385.5,-345 385.5,-339 385.5,-339 385.5,-327 385.5,-327 385.5,-321 391.5,-315 397.5,-315 397.5,-315 427.5,-315 427.5,-315 433.5,-315 439.5,-321 439.5,-327 439.5,-327 439.5,-339 439.5,-339 439.5,-345 433.5,-351 427.5,-351"/>
<text text-anchor="middle" x="412.5" y="-330.5" font-family="sans" font-size="10.00">spinup</text>
</g>
<!-- 13&#45;&gt;15 -->
<g id="edge23" class="edge">
<title>13&#45;&gt;15</title>
<path fill="none" stroke="grey" stroke-width="2" d="M370.94,-458.96C373.81,-440.81 379.26,-411.4 387.5,-387 390.49,-378.13 394.56,-368.79 398.55,-360.47"/>
<polygon fill="grey" stroke="grey" stroke-width="2" points="401.82,-361.76 403.12,-351.25 395.55,-358.65 401.82,-361.76"/>
</g>
<!-- 16 -->
<g id="node17" class="node">
<title>16</title>
<path fill="none" stroke="#56a9d8" stroke-width="2" d="M476.5,-423C476.5,-423 408.5,-423 408.5,-423 402.5,-423 396.5,-417 396.5,-411 396.5,-411 396.5,-399 396.5,-399 396.5,-393 402.5,-387 408.5,-387 408.5,-387 476.5,-387 476.5,-387 482.5,-387 488.5,-393 488.5,-399 488.5,-399 488.5,-411 488.5,-411 488.5,-417 482.5,-423 476.5,-423"/>
<text text-anchor="middle" x="442.5" y="-402.5" font-family="sans" font-size="10.00">prepare_spinup</text>
</g>
<!-- 13&#45;&gt;16 -->
<g id="edge24" class="edge">
<title>13&#45;&gt;16</title>
<path fill="none" stroke="grey" stroke-width="2" d="M386.79,-458.7C395.93,-450.05 407.14,-439.45 417.1,-430.03"/>
<polygon fill="grey" stroke="grey" stroke-width="2" points="419.56,-432.52 424.42,-423.1 414.75,-427.43 419.56,-432.52"/>
</g>
<!-- 14&#45;&gt;11 -->
<g id="edge18" class="edge">
<title>14&#45;&gt;11</title>
<path fill="none" stroke="grey" stroke-width="2" d="M357.35,-223.68C341.55,-212.11 322.39,-198.08 306.48,-186.43"/>
<polygon fill="grey" stroke="grey" stroke-width="2" points="308.15,-183.31 298.02,-180.23 304.02,-188.96 308.15,-183.31"/>
</g>
<!-- 15&#45;&gt;14 -->
<g id="edge21" class="edge">
<title>15&#45;&gt;14</title>
<path fill="none" stroke="grey" stroke-width="2" d="M407.53,-314.7C404.92,-305.63 401.63,-294.18 398.52,-283.37"/>
<polygon fill="grey" stroke="grey" stroke-width="2" points="401.87,-282.35 395.74,-273.7 395.14,-284.28 401.87,-282.35"/>
</g>
<!-- 16&#45;&gt;15 -->
<g id="edge22" class="edge">
<title>16&#45;&gt;15</title>
<path fill="none" stroke="grey" stroke-width="2" d="M435.08,-386.7C431.71,-378.81 427.63,-369.3 423.88,-360.55"/>
<polygon fill="grey" stroke="grey" stroke-width="2" points="426.99,-358.92 419.83,-351.1 420.55,-361.67 426.99,-358.92"/>
</g>
<!-- 17&#45;&gt;0 -->
<g id="edge3" class="edge">
<title>17&#45;&gt;0</title>
<path fill="none" stroke="grey" stroke-width="2" d="M152.63,-71.7C157.35,-63.64 163.06,-53.89 168.28,-44.98"/>
<polygon fill="grey" stroke="grey" stroke-width="2" points="171.45,-46.5 173.48,-36.1 165.41,-42.96 171.45,-46.5"/>
</g>
<!-- 18&#45;&gt;0 -->
<g id="edge4" class="edge">
<title>18&#45;&gt;0</title>
<path fill="none" stroke="grey" stroke-width="2" d="M281.38,-73.81C263.19,-63.63 239.06,-50.11 219.3,-39.05"/>
<polygon fill="grey" stroke="grey" stroke-width="2" points="221.01,-35.99 210.57,-34.16 217.59,-42.1 221.01,-35.99"/>
</g>
</g>
</svg>
