<?xml version="1.0" encoding="UTF-8" standalone="no"?>
<!DOCTYPE svg PUBLIC "-//W3C//DTD SVG 1.1//EN"
 "http://www.w3.org/Graphics/SVG/1.1/DTD/svg11.dtd">
<!-- Generated by graphviz version 2.43.0 (0)
 -->
<!-- Title: snakemake_dag Pages: 1 -->
<svg width="140pt" height="348pt"
 viewBox="0.00 0.00 140.00 348.00" xmlns="http://www.w3.org/2000/svg" xmlns:xlink="http://www.w3.org/1999/xlink">
<g id="graph0" class="graph" transform="scale(1 1) rotate(0) translate(4 344)">
<title>snakemake_dag</title>
<polygon fill="white" stroke="transparent" points="-4,4 -4,-344 136,-344 136,4 -4,4"/>
<!-- 0 -->
<g id="node1" class="node">
<title>0</title>
<path fill="none" stroke="#56d8b9" stroke-width="2" d="M59,-36C59,-36 29,-36 29,-36 23,-36 17,-30 17,-24 17,-24 17,-12 17,-12 17,-6 23,0 29,0 29,0 59,0 59,0 65,0 71,-6 71,-12 71,-12 71,-24 71,-24 71,-30 65,-36 59,-36"/>
<text text-anchor="middle" x="44" y="-15.5" font-family="sans" font-size="10.00">all</text>
</g>
<!-- 1 -->
<g id="node2" class="node">
<title>1</title>
<path fill="none" stroke="#56a9d8" stroke-width="2" d="M68,-108C68,-108 20,-108 20,-108 14,-108 8,-102 8,-96 8,-96 8,-84 8,-84 8,-78 14,-72 20,-72 20,-72 68,-72 68,-72 74,-72 80,-78 80,-84 80,-84 80,-96 80,-96 80,-102 74,-108 68,-108"/>
<text text-anchor="middle" x="44" y="-87.5" font-family="sans" font-size="10.00">merge_str4</text>
</g>
<!-- 1&#45;&gt;0 -->
<g id="edge1" class="edge">
<title>1&#45;&gt;0</title>
<path fill="none" stroke="grey" stroke-width="2" d="M44,-71.7C44,-63.98 44,-54.71 44,-46.11"/>
<polygon fill="grey" stroke="grey" stroke-width="2" points="47.5,-46.1 44,-36.1 40.5,-46.1 47.5,-46.1"/>
</g>
<!-- 2 -->
<g id="node3" class="node">
<title>2</title>
<path fill="none" stroke="#56d0d8" stroke-width="2" d="M76,-196C76,-196 12,-196 12,-196 6,-196 0,-190 0,-184 0,-184 0,-156 0,-156 0,-150 6,-144 12,-144 12,-144 76,-144 76,-144 82,-144 88,-150 88,-156 88,-156 88,-184 88,-184 88,-190 82,-196 76,-196"/>
<text text-anchor="middle" x="44" y="-184" font-family="sans" font-size="10.00">calib_str4</text>
<text text-anchor="middle" x="44" y="-173" font-family="sans" font-size="10.00">cra: 1.85</text>
<text text-anchor="middle" x="44" y="-162" font-family="sans" font-size="10.00">crberr: &#45;0.4641</text>
<text text-anchor="middle" x="44" y="-151" font-family="sans" font-size="10.00">m: 0.045</text>
</g>
<!-- 2&#45;&gt;1 -->
<g id="edge2" class="edge">
<title>2&#45;&gt;1</title>
<path fill="none" stroke="grey" stroke-width="2" d="M44,-143.89C44,-135.84 44,-126.88 44,-118.66"/>
<polygon fill="grey" stroke="grey" stroke-width="2" points="47.5,-118.41 44,-108.41 40.5,-118.41 47.5,-118.41"/>
</g>
<!-- 3 -->
<g id="node4" class="node">
<title>3</title>
<path fill="none" stroke="#56d86b" stroke-width="2" d="M120,-268C120,-268 46,-268 46,-268 40,-268 34,-262 34,-256 34,-256 34,-244 34,-244 34,-238 40,-232 46,-232 46,-232 120,-232 120,-232 126,-232 132,-238 132,-244 132,-244 132,-256 132,-256 132,-262 126,-268 120,-268"/>
<text text-anchor="middle" x="83" y="-247.5" font-family="sans" font-size="10.00">prepare_clim600</text>
</g>
<!-- 3&#45;&gt;2 -->
<g id="edge3" class="edge">
<title>3&#45;&gt;2</title>
<path fill="none" stroke="grey" stroke-width="2" d="M74.34,-231.69C70.44,-223.88 65.68,-214.37 61.11,-205.22"/>
<polygon fill="grey" stroke="grey" stroke-width="2" points="64.23,-203.64 56.63,-196.26 57.97,-206.77 64.23,-203.64"/>
</g>
<!-- 4 -->
<g id="node5" class="node">
<title>4</title>
<path fill="none" stroke="#d85656" stroke-width="2" d="M73.5,-340C73.5,-340 14.5,-340 14.5,-340 8.5,-340 2.5,-334 2.5,-328 2.5,-328 2.5,-316 2.5,-316 2.5,-310 8.5,-304 14.5,-304 14.5,-304 73.5,-304 73.5,-304 79.5,-304 85.5,-310 85.5,-316 85.5,-316 85.5,-328 85.5,-328 85.5,-334 79.5,-340 73.5,-340"/>
<text text-anchor="middle" x="44" y="-325" font-family="sans" font-size="10.00">format_data4</text>
<text text-anchor="middle" x="44" y="-314" font-family="sans" font-size="10.00">site: Tapajos</text>
</g>
<!-- 4&#45;&gt;2 -->
<g id="edge4" class="edge">
<title>4&#45;&gt;2</title>
<path fill="none" stroke="grey" stroke-width="2" d="M36.11,-303.75C31.89,-293.58 27.14,-280.33 25,-268 22.26,-252.24 22.59,-247.82 25,-232 26.32,-223.33 28.64,-214.2 31.21,-205.71"/>
<polygon fill="grey" stroke="grey" stroke-width="2" points="34.56,-206.71 34.3,-196.12 27.9,-204.56 34.56,-206.71"/>
</g>
<!-- 4&#45;&gt;3 -->
<g id="edge5" class="edge">
<title>4&#45;&gt;3</title>
<path fill="none" stroke="grey" stroke-width="2" d="M53.64,-303.7C58.13,-295.64 63.56,-285.89 68.52,-276.98"/>
<polygon fill="grey" stroke="grey" stroke-width="2" points="71.66,-278.54 73.47,-268.1 65.55,-275.14 71.66,-278.54"/>
</g>
</g>
</svg>
