<?xml version="1.0" encoding="UTF-8" standalone="no"?>
<!DOCTYPE svg PUBLIC "-//W3C//DTD SVG 1.1//EN"
 "http://www.w3.org/Graphics/SVG/1.1/DTD/svg11.dtd">
<!-- Generated by graphviz version 2.43.0 (0)
 -->
<!-- Title: snakemake_dag Pages: 1 -->
<svg width="204pt" height="287pt"
 viewBox="0.00 0.00 204.00 287.00" xmlns="http://www.w3.org/2000/svg" xmlns:xlink="http://www.w3.org/1999/xlink">
<g id="graph0" class="graph" transform="scale(1 1) rotate(0) translate(4 283)">
<title>snakemake_dag</title>
<polygon fill="white" stroke="transparent" points="-4,4 -4,-283 200,-283 200,4 -4,4"/>
<!-- 0 -->
<g id="node1" class="node">
<title>0</title>
<path fill="none" stroke="#56a9d8" stroke-width="2" d="M112.5,-36C112.5,-36 82.5,-36 82.5,-36 76.5,-36 70.5,-30 70.5,-24 70.5,-24 70.5,-12 70.5,-12 70.5,-6 76.5,0 82.5,0 82.5,0 112.5,0 112.5,0 118.5,0 124.5,-6 124.5,-12 124.5,-12 124.5,-24 124.5,-24 124.5,-30 118.5,-36 112.5,-36"/>
<text text-anchor="middle" x="97.5" y="-15.5" font-family="sans" font-size="10.00">all</text>
</g>
<!-- 1 -->
<g id="node2" class="node">
<title>1</title>
<path fill="none" stroke="#56d882" stroke-width="2" d="M134,-108C134,-108 61,-108 61,-108 55,-108 49,-102 49,-96 49,-96 49,-84 49,-84 49,-78 55,-72 61,-72 61,-72 134,-72 134,-72 140,-72 146,-78 146,-84 146,-84 146,-96 146,-96 146,-102 140,-108 134,-108"/>
<text text-anchor="middle" x="97.5" y="-87.5" font-family="sans" font-size="10.00">merge_structure</text>
</g>
<!-- 1&#45;&gt;0 -->
<g id="edge1" class="edge">
<title>1&#45;&gt;0</title>
<path fill="none" stroke="grey" stroke-width="2" d="M97.5,-71.7C97.5,-63.98 97.5,-54.71 97.5,-46.11"/>
<polygon fill="grey" stroke="grey" stroke-width="2" points="101,-46.1 97.5,-36.1 94,-46.1 101,-46.1"/>
</g>
<!-- 2 -->
<g id="node3" class="node">
<title>2</title>
<path fill="none" stroke="#afd856" stroke-width="2" d="M76.5,-180C76.5,-180 12.5,-180 12.5,-180 6.5,-180 0.5,-174 0.5,-168 0.5,-168 0.5,-156 0.5,-156 0.5,-150 6.5,-144 12.5,-144 12.5,-144 76.5,-144 76.5,-144 82.5,-144 88.5,-150 88.5,-156 88.5,-156 88.5,-168 88.5,-168 88.5,-174 82.5,-180 76.5,-180"/>
<text text-anchor="middle" x="44.5" y="-159.5" font-family="sans" font-size="10.00">filter_structure</text>
</g>
<!-- 2&#45;&gt;1 -->
<g id="edge2" class="edge">
<title>2&#45;&gt;1</title>
<path fill="none" stroke="grey" stroke-width="2" d="M57.6,-143.7C63.89,-135.39 71.55,-125.28 78.46,-116.14"/>
<polygon fill="grey" stroke="grey" stroke-width="2" points="81.3,-118.19 84.55,-108.1 75.72,-113.96 81.3,-118.19"/>
</g>
<!-- 3 -->
<g id="node4" class="node">
<title>3</title>
<path fill="none" stroke="#5682d8" stroke-width="2" d="M77,-279C77,-279 12,-279 12,-279 6,-279 0,-273 0,-267 0,-267 0,-228 0,-228 0,-222 6,-216 12,-216 12,-216 77,-216 77,-216 83,-216 89,-222 89,-228 89,-228 89,-267 89,-267 89,-273 83,-279 77,-279"/>
<text text-anchor="middle" x="44.5" y="-267" font-family="sans" font-size="10.00">calib_structure</text>
<text text-anchor="middle" x="44.5" y="-256" font-family="sans" font-size="10.00">cra: 2.13</text>
<text text-anchor="middle" x="44.5" y="-245" font-family="sans" font-size="10.00">crberr: &#45;0.4641</text>
<text text-anchor="middle" x="44.5" y="-234" font-family="sans" font-size="10.00">m: 0.025</text>
<text text-anchor="middle" x="44.5" y="-223" font-family="sans" font-size="10.00">site: Paracou</text>
</g>
<!-- 3&#45;&gt;2 -->
<g id="edge4" class="edge">
<title>3&#45;&gt;2</title>
<path fill="none" stroke="grey" stroke-width="2" d="M44.5,-215.88C44.5,-207.47 44.5,-198.4 44.5,-190.19"/>
<polygon fill="grey" stroke="grey" stroke-width="2" points="48,-190.03 44.5,-180.03 41,-190.03 48,-190.03"/>
</g>
<!-- 4 -->
<g id="node5" class="node">
<title>4</title>
<path fill="none" stroke="#afd856" stroke-width="2" d="M182.5,-180C182.5,-180 118.5,-180 118.5,-180 112.5,-180 106.5,-174 106.5,-168 106.5,-168 106.5,-156 106.5,-156 106.5,-150 112.5,-144 118.5,-144 118.5,-144 182.5,-144 182.5,-144 188.5,-144 194.5,-150 194.5,-156 194.5,-156 194.5,-168 194.5,-168 194.5,-174 188.5,-180 182.5,-180"/>
<text text-anchor="middle" x="150.5" y="-159.5" font-family="sans" font-size="10.00">filter_structure</text>
</g>
<!-- 4&#45;&gt;1 -->
<g id="edge3" class="edge">
<title>4&#45;&gt;1</title>
<path fill="none" stroke="grey" stroke-width="2" d="M137.4,-143.7C131.11,-135.39 123.45,-125.28 116.54,-116.14"/>
<polygon fill="grey" stroke="grey" stroke-width="2" points="119.28,-113.96 110.45,-108.1 113.7,-118.19 119.28,-113.96"/>
</g>
<!-- 5 -->
<g id="node6" class="node">
<title>5</title>
<path fill="none" stroke="#5682d8" stroke-width="2" d="M184,-279C184,-279 119,-279 119,-279 113,-279 107,-273 107,-267 107,-267 107,-228 107,-228 107,-222 113,-216 119,-216 119,-216 184,-216 184,-216 190,-216 196,-222 196,-228 196,-228 196,-267 196,-267 196,-273 190,-279 184,-279"/>
<text text-anchor="middle" x="151.5" y="-267" font-family="sans" font-size="10.00">calib_structure</text>
<text text-anchor="middle" x="151.5" y="-256" font-family="sans" font-size="10.00">cra: 2.13</text>
<text text-anchor="middle" x="151.5" y="-245" font-family="sans" font-size="10.00">crberr: &#45;0.4641</text>
<text text-anchor="middle" x="151.5" y="-234" font-family="sans" font-size="10.00">m: 0.025</text>
<text text-anchor="middle" x="151.5" y="-223" font-family="sans" font-size="10.00">site: Tapajos</text>
</g>
<!-- 5&#45;&gt;4 -->
<g id="edge5" class="edge">
<title>5&#45;&gt;4</title>
<path fill="none" stroke="grey" stroke-width="2" d="M151.13,-215.88C151.03,-207.47 150.92,-198.4 150.83,-190.19"/>
<polygon fill="grey" stroke="grey" stroke-width="2" points="154.32,-189.98 150.7,-180.03 147.32,-190.07 154.32,-189.98"/>
</g>
</g>
</svg>
